<svg xmlns="http://www.w3.org/2000/svg" xmlns:xlink="http://www.w3.org/1999/xlink" width="1080" zoomAndPan="magnify" viewBox="0 0 810 374.999991" height="500" preserveAspectRatio="xMidYMid meet" version="1.0"><defs><filter x="0%" y="0%" width="100%" height="100%" id="ac562835d1"><feColorMatrix values="0 0 0 0 1 0 0 0 0 1 0 0 0 0 1 0 0 0 1 0" color-interpolation-filters="sRGB"/></filter><g/><mask id="594f9bc837"><g filter="url(#ac562835d1)"><rect x="-81" width="972" fill="#000000" y="-37.499999" height="449.999989" fill-opacity="0.55"/></g></mask><clipPath id="d1f97dc994"><path d="M 6 0.800781 L 89 0.800781 L 89 71 L 6 71 Z M 6 0.800781 " clip-rule="nonzero"/></clipPath><clipPath id="31c6fc0075"><path d="M 1.019531 64 L 94.019531 64 L 94.019531 140.289062 L 1.019531 140.289062 Z M 1.019531 64 " clip-rule="nonzero"/></clipPath><clipPath id="449e3a6206"><rect x="0" width="95" y="0" height="141"/></clipPath></defs><g fill="#8c82fc" fill-opacity="1"><g transform="translate(116.801031, 238.014833)"><g><path d="M 103.53125 -95.515625 L 56.234375 -25.140625 L 99.8125 -25.140625 L 99.8125 0 L 0.9375 0 L 48.234375 -70.390625 L 8.75 -70.390625 L 8.75 -95.515625 Z M 103.53125 -95.515625 "/></g></g></g><g fill="#8c82fc" fill-opacity="1"><g transform="translate(221.259014, 238.014833)"><g><path d="M 120.28125 -95.515625 L 74.859375 -49.90625 L 124.75 0 L 82.296875 0 L 44.125 -38.171875 L 44.125 0 L 11.171875 0 L 11.171875 -160.140625 L 44.125 -160.140625 L 44.125 -62.1875 L 77.453125 -95.515625 Z M 120.28125 -95.515625 "/></g></g></g><g fill="#8c82fc" fill-opacity="1"><g transform="translate(341.543958, 238.014833)"><g><path d="M 129.03125 0 L 104.453125 -86.21875 L 79.875 0 L 40.96875 0 L -2.796875 -153.625 L 36.125 -153.625 L 62.375 -48.234375 L 63.3125 -48.234375 L 91.234375 -153.625 L 117.6875 -153.625 L 145.609375 -48.234375 L 146.546875 -48.234375 L 172.796875 -153.625 L 211.53125 -153.625 L 167.765625 0 Z M 129.03125 0 "/></g></g></g><g fill="#8c82fc" fill-opacity="1"><g transform="translate(550.273753, 238.014833)"><g><path d="M 107.8125 -43.203125 L 38.546875 -43.203125 C 38.546875 -36.492188 40.71875 -31.523438 45.0625 -28.296875 C 49.40625 -25.078125 54.125 -23.46875 59.21875 -23.46875 C 64.550781 -23.46875 68.769531 -24.179688 71.875 -25.609375 C 74.976562 -27.035156 78.515625 -29.859375 82.484375 -34.078125 L 106.328125 -22.15625 C 96.390625 -5.519531 79.878906 2.796875 56.796875 2.796875 C 42.390625 2.796875 30.035156 -2.132812 19.734375 -12 C 9.429688 -21.875 4.28125 -33.757812 4.28125 -47.65625 C 4.28125 -61.5625 9.429688 -73.476562 19.734375 -83.40625 C 30.035156 -93.34375 42.390625 -98.3125 56.796875 -98.3125 C 71.941406 -98.3125 84.257812 -93.9375 93.75 -85.1875 C 103.25 -76.4375 108 -63.929688 108 -47.671875 C 108 -45.429688 107.9375 -43.941406 107.8125 -43.203125 Z M 39.46875 -61.453125 L 75.78125 -61.453125 C 75.039062 -66.410156 73.085938 -70.222656 69.921875 -72.890625 C 66.753906 -75.566406 62.6875 -76.90625 57.71875 -76.90625 C 52.257812 -76.90625 47.914062 -75.476562 44.6875 -72.625 C 41.457031 -69.769531 39.71875 -66.046875 39.46875 -61.453125 Z M 39.46875 -61.453125 "/></g></g></g><g fill="#8c82fc" fill-opacity="1"><g transform="translate(662.552107, 238.014833)"><g><path d="M 109.484375 -83.59375 C 118.421875 -73.789062 122.890625 -61.8125 122.890625 -47.65625 C 122.890625 -33.507812 118.421875 -21.5625 109.484375 -11.8125 C 100.546875 -2.070312 89.1875 2.796875 75.40625 2.796875 C 62.75 2.796875 52.320312 -1.734375 44.125 -10.796875 L 43.75 -10.796875 L 43.75 0 L 11.171875 0 L 11.171875 -160.140625 L 44.125 -160.140625 L 44.125 -86.390625 C 52.320312 -94.335938 62.75 -98.3125 75.40625 -98.3125 C 89.1875 -98.3125 100.546875 -93.40625 109.484375 -83.59375 Z M 81.734375 -31.5625 C 85.835938 -35.71875 87.890625 -41.082031 87.890625 -47.65625 C 87.890625 -54.238281 85.75 -59.640625 81.46875 -63.859375 C 77.1875 -68.085938 71.878906 -70.203125 65.546875 -70.203125 C 59.335938 -70.203125 54.09375 -68.085938 49.8125 -63.859375 C 45.53125 -59.640625 43.390625 -54.242188 43.390625 -47.671875 C 43.390625 -41.210938 45.46875 -35.875 49.625 -31.65625 C 53.78125 -27.4375 59.085938 -25.328125 65.546875 -25.328125 C 72.242188 -25.328125 77.640625 -27.40625 81.734375 -31.5625 Z M 81.734375 -31.5625 "/></g></g></g><g mask="url(#594f9bc837)"><g transform="matrix(1, 0, 0, 1, 15, 100)"><g clip-path="url(#449e3a6206)"><g clip-path="url(#d1f97dc994)"><path fill="#8c82fc" d="M 85.300781 70.585938 C 83.695312 70.585938 82.394531 69.28125 82.394531 67.679688 L 82.394531 41.523438 C 82.394531 22.289062 66.753906 6.648438 47.519531 6.648438 C 28.285156 6.648438 12.644531 22.289062 12.644531 41.523438 L 12.644531 67.679688 C 12.644531 69.28125 11.34375 70.585938 9.738281 70.585938 C 8.132812 70.585938 6.832031 69.28125 6.832031 67.679688 L 6.832031 41.523438 C 6.832031 19.085938 25.082031 0.835938 47.519531 0.835938 C 69.957031 0.835938 88.207031 19.085938 88.207031 41.523438 L 88.207031 67.679688 C 88.207031 69.28125 86.90625 70.585938 85.300781 70.585938 Z M 85.300781 70.585938 " fill-opacity="1" fill-rule="nonzero"/></g><path fill="#8c82fc" d="M 73.675781 70.585938 C 72.070312 70.585938 70.769531 69.28125 70.769531 67.679688 L 70.769531 41.523438 C 70.769531 28.699219 60.34375 18.273438 47.519531 18.273438 C 34.699219 18.273438 24.269531 28.699219 24.269531 41.523438 L 24.269531 67.679688 C 24.269531 69.28125 22.96875 70.585938 21.363281 70.585938 C 19.757812 70.585938 18.457031 69.28125 18.457031 67.679688 L 18.457031 41.523438 C 18.457031 25.496094 31.496094 12.460938 47.519531 12.460938 C 63.546875 12.460938 76.582031 25.496094 76.582031 41.523438 L 76.582031 67.679688 C 76.582031 69.28125 75.28125 70.585938 73.675781 70.585938 Z M 73.675781 70.585938 " fill-opacity="1" fill-rule="nonzero"/><g clip-path="url(#31c6fc0075)"><path fill="#8c82fc" d="M 79.488281 140.335938 L 15.550781 140.335938 C 7.542969 140.335938 1.019531 133.8125 1.019531 125.804688 L 1.019531 73.492188 C 1.019531 68.683594 4.933594 64.773438 9.738281 64.773438 L 85.300781 64.773438 C 90.109375 64.773438 94.019531 68.683594 94.019531 73.492188 L 94.019531 125.804688 C 94.019531 133.8125 87.5 140.335938 79.488281 140.335938 Z M 9.738281 70.585938 C 8.132812 70.585938 6.832031 71.886719 6.832031 73.492188 L 6.832031 125.804688 C 6.832031 130.609375 10.746094 134.523438 15.550781 134.523438 L 79.488281 134.523438 C 84.296875 134.523438 88.207031 130.609375 88.207031 125.804688 L 88.207031 73.492188 C 88.207031 71.886719 86.90625 70.585938 85.300781 70.585938 Z M 9.738281 70.585938 " fill-opacity="1" fill-rule="nonzero"/></g><path fill="#8c82fc" d="M 56.238281 117.085938 L 38.800781 117.085938 C 37.867188 117.085938 36.988281 116.636719 36.441406 115.875 C 35.894531 115.121094 35.742188 114.144531 36.046875 113.253906 L 39.671875 102.375 C 37.273438 100.199219 35.894531 97.140625 35.894531 93.835938 C 35.894531 87.425781 41.109375 82.210938 47.519531 82.210938 C 53.929688 82.210938 59.144531 87.425781 59.144531 93.835938 C 59.144531 97.140625 57.765625 100.199219 55.367188 102.378906 L 58.992188 113.261719 C 59.289062 114.144531 59.140625 115.121094 58.597656 115.882812 C 58.050781 116.636719 57.175781 117.085938 56.238281 117.085938 Z M 42.835938 111.273438 L 52.203125 111.273438 L 49.1875 102.226562 C 48.753906 100.933594 49.285156 99.507812 50.460938 98.8125 C 52.257812 97.742188 53.332031 95.882812 53.332031 93.835938 C 53.332031 90.632812 50.722656 88.023438 47.519531 88.023438 C 44.316406 88.023438 41.707031 90.632812 41.707031 93.835938 C 41.707031 95.882812 42.78125 97.742188 44.578125 98.8125 C 45.753906 99.507812 46.28125 100.933594 45.851562 102.226562 Z M 42.835938 111.273438 " fill-opacity="1" fill-rule="nonzero"/></g></g></g></svg>